PathFileType	4	(X/Y/Z)	E:\Qualisys_Data\Carbon_Farble_Plate\Data\Amateur_Runner\S1\T2\S1T2V13_c3d.trc
DataRate	CameraRate	NumFrames	NumMarkers	Units	OrigDataRate	OrigDataStartFrame	OrigNumFrames
200.000000	200.000000	4	39	mm	200.000000	76	307
Frame#	Time	LSHO			RSHO			LICST			RICST			LASIS			LHEEL			RASIS			LTROC			RTROC			SACR			LTH1			LSK4			LTH2			LTH3			RHM5			LSK2			LTH4			RTH1			LTOE			RTH2			RTH3			RTH4			LLEP			RLEP			LSK1			LSK3			RSK1			LHM5			RSK2			LFT1			RSK3			RSK4			LLME			RLME			RTOE			RHEEL			RFT1			RFT2			LFT2			
		X1	Y1	Z1	X2	Y2	Z2	X3	Y3	Z3	X4	Y4	Z4	X5	Y5	Z5	X6	Y6	Z6	X7	Y7	Z7	X8	Y8	Z8	X9	Y9	Z9	X10	Y10	Z10	X11	Y11	Z11	X12	Y12	Z12	X13	Y13	Z13	X14	Y14	Z14	X15	Y15	Z15	X16	Y16	Z16	X17	Y17	Z17	X18	Y18	Z18	X19	Y19	Z19	X20	Y20	Z20	X21	Y21	Z21	X22	Y22	Z22	X23	Y23	Z23	X24	Y24	Z24	X25	Y25	Z25	X26	Y26	Z26	X27	Y27	Z27	X28	Y28	Z28	X29	Y29	Z29	X30	Y30	Z30	X31	Y31	Z31	X32	Y32	Z32	X33	Y33	Z33	X34	Y34	Z34	X35	Y35	Z35	X36	Y36	Z36	X37	Y37	Z37	X38	Y38	Z38	X39	Y39	Z39	

77	0.38	-975.12060546875	1550.969970703125	-550.1649780273438	-891.004150390625	1543.364501953125	-240.7064514160156	-956.6422729492188	1074.331665039062	-517.376953125	-947.08837890625	1094.781616210938	-224.0449829101562	-913.6185302734376	1033.895385742188	-490.5960388183594	-816.853759765625	100.970703125	-405.4584655761719	-914.4827880859376	1041.812744140625	-229.6287231445312	-1010.755249023438	950.8211669921876	-536.442626953125	-1043.083374023438	976.1949462890624	-199.1316070556641	-1070.638427734375	1107.416748046875	-366.447509765625	-853.4933471679688	825.2816162109375	-504.9313049316406	-855.7455444335938	267.7125244140625	-444.6092834472656	-928.490966796875	796.6209716796875	-537.5958862304688	-825.9730224609375	726.5840454101562	-487.9726867675781	-1449.7021484375	151.5078125	-223.6939086914062	-871.104248046875	363.2649536132812	-484.1327514648438	-905.3764038085938	701.633056640625	-511.6844482421875	-961.7860717773438	814.3250732421875	-224.2489624023438	-575.7577514648438	180.0965728759766	-426.1714477539062	-1031.849487304688	837.6878662109375	-195.3419036865234	-997.6378784179688	720.5560302734375	-236.1434173583984	-1069.923828125	746.7255249023438	-211.4048614501953	-829.4348754882812	574.5540161132812	-472.6348876953125	-1114.635498046875	577.9130249023438	-248.4868316650391	-787.8900756835938	372.2314453125	-483.4532775878906	-780.6434936523438	271.119873046875	-476.8056030273438	-1257.189208984375	447.8612060546875	-224.9866180419922	-627.1133422851562	119.2155838012695	-485.6219177246094	-1313.021606445312	506.114501953125	-238.5167236328125	-798.2761840820312	78.75434875488281	-382.6663208007812	-1328.012573242188	377.4724426269531	-230.8656311035156	-1381.7509765625	433.526123046875	-258.1116943359375	-780.4700927734375	142.7667236328125	-463.9161376953125	-1451.273559570312	304.0679626464844	-234.6889343261719	-1401.667236328125	108.8735733032227	-297.1471557617188	-1504.46923828125	340.1067504882812	-277.555419921875	-1523.843872070312	316.3056030273438	-310.6647033691406	-1530.051147460938	322.6986694335938	-255.3795471191406	-801.8336791992188	69.91909790039062	-434.915771484375
78	0.385	-958.1380615234376	1548.886962890625	-551.4381713867188	-874.1434936523438	1542.309692382812	-241.7015533447266	-938.992919921875	1072.561889648438	-517.2039794921875	-930.843994140625	1093.746459960938	-223.8304290771484	-896.7910766601562	1032.588500976562	-490.74951171875	-797.5211791992188	99.57947540283205	-405.1817016601562	-898.0170288085938	1040.957153320312	-229.2648468017578	-994.5219116210938	948.8821411132812	-536.0879516601562	-1025.256225585938	973.9403686523438	-198.4123992919922	-1054.373046875	1105.431640625	-366.4474182128906	-838.9485473632812	821.2619018554688	-504.8517150878906	-837.5604248046875	265.5872497558594	-445.0516967773438	-913.2960815429688	793.7915649414062	-538.9794921875	-812.862060546875	722.036376953125	-487.790283203125	-1438.631713867188	157.7152709960938	-223.50537109375	-853.6349487304688	360.7264404296875	-484.6775817871094	-891.5120239257812	697.983154296875	-513.8872680664062	-943.16259765625	812.85302734375	-225.6642150878906	-557.4134521484375	181.6935577392578	-426.178955078125	-1012.447387695312	834.6702270507812	-195.3322601318359	-978.0357666015624	718.4281005859375	-238.0547180175781	-1049.732177734375	743.7774658203125	-211.6374206542969	-814.4386596679688	572.2938232421875	-471.6749877929688	-1094.433715820312	574.4501953125	-249.2630615234375	-770.6409912109375	371.0164794921875	-482.5243225097656	-762.2744140625	270.0763244628906	-476.2089233398438	-1240.141723632812	448.5813598632812	-225.2876586914062	-607.8138427734375	120.7045288085938	-486.0924377441406	-1294.3798828125	508.3310546875	-238.8264007568359	-778.282470703125	77.69773864746094	-381.8255004882812	-1312.428100585938	378.6238098144531	-232.1911926269531	-1365.056640625	437.6730346679688	-258.1723022460938	-760.9588623046875	140.926513671875	-463.6449584960938	-1437.337280273438	310.5627136230469	-233.9063415527344	-1391.476440429688	114.9297943115234	-296.6432800292969	-1490.413330078125	347.3253173828125	-276.9898071289062	-1511.553833007812	324.3703308105469	-310.4202880859375	-1516.754760742188	330.4670715332031	-254.7104644775391	-781.7305297851562	68.20169830322266	-434.8325805664062
79	0.39	-939.8850708007812	1546.651733398438	-552.2699584960938	-856.8858032226562	1540.93896484375	-242.1252593994141	-922.227783203125	1070.291015625	-517.447998046875	-914.2537841796876	1092.067749023438	-223.5430450439453	-878.5863037109375	1031.01611328125	-490.26171875	-778.5841064453125	97.7048568725586	-404.4689331054688	-880.4802856445312	1039.734130859375	-229.0409088134766	-976.4976806640624	946.6306762695312	-535.688720703125	-1007.87451171875	971.5405883789062	-197.4504089355469	-1037.925659179688	1103.278076171875	-366.0687255859375	-823.1226196289062	817.3152465820312	-504.0027160644531	-819.2576904296875	263.4895324707031	-444.2902526855469	-897.0870971679688	790.7217407226562	-539.8988647460938	-798.4022827148438	717.3648071289062	-487.5160522460938	-1426.329833984375	164.1446838378906	-222.525634765625	-835.1023559570312	358.5209045410156	-484.2801208496094	-876.8181762695312	694.107666015625	-515.7518310546875	-924.2348022460938	810.8524169921875	-227.1255340576172	-539.425537109375	181.8172607421875	-425.6382141113281	-993.5831909179688	831.7440185546875	-195.8314819335938	-957.9735717773438	716.06689453125	-239.9121856689453	-1029.739379882812	740.2039184570312	-211.740478515625	-797.2786254882812	570.899169921875	-471.4125061035156	-1073.302368164062	571.451416015625	-249.6839447021484	-752.1787109375	369.0372924804688	-481.5057067871094	-743.575439453125	268.5293884277344	-475.0843505859375	-1222.9169921875	448.9977111816406	-225.4464569091797	-588.979248046875	120.6313171386719	-485.7180786132812	-1274.926025390625	510.0717468261719	-238.8301696777344	-759.646240234375	75.47315979003906	-381.4503784179688	-1296.898315429688	381.0348205566406	-232.8109741210938	-1347.158447265625	441.4735107421875	-257.0534973144531	-743.9463500976562	140.06494140625	-463.0779418945312	-1422.642456054688	316.7585754394531	-233.2176208496094	-1380.590698242188	120.0557632446289	-296.2777404785156	-1475.670288085938	354.0679016113281	-275.8335876464844	-1497.342041015625	331.2716979980469	-309.3958740234375	-1502.381103515625	337.9859619140625	-254.2935333251953	-762.1694946289062	65.9745864868164	-434.12255859375
80	0.395	-923.2490234375	1543.994873046875	-553.4745483398438	-840.2676391601562	1539.524291992188	-243.5115661621094	-906.547607421875	1068.726440429688	-517.3258056640625	-898.0177001953125	1089.975708007812	-223.2469940185547	-862.154296875	1029.518432617188	-490.1227722167969	-762.3223876953125	95.82273864746094	-403.6222534179688	-864.1187133789062	1037.986083984375	-229.0476379394531	-960.6504516601562	944.5108642578124	-535.34521484375	-990.2356567382812	968.600830078125	-196.5639953613281	-1021.389465332031	1100.918334960938	-365.9851379394531	-807.4728393554688	814.072998046875	-504.6153259277344	-802.6083374023438	261.3555297851562	-444.0289916992188	-882.0418701171875	788.461669921875	-540.6748046875	-784.860107421875	713.3438110351562	-487.9546203613281	-1413.9853515625	170.4300537109375	-222.11865234375	-818.4564208984375	356.2676696777344	-484.2842407226562	-862.8671264648438	691.7625732421875	-517.8300170898438	-905.3810424804688	808.6165161132812	-227.8101501464844	-523.0267944335938	179.9803314208984	-425.4906005859375	-974.5133666992188	828.4166870117188	-195.8038787841797	-938.32666015625	713.5357666015625	-240.7633209228516	-1009.944519042969	736.4461669921875	-211.9599456787109	-782.135986328125	568.8744506835938	-470.9232482910156	-1052.523803710938	567.8478393554688	-249.521484375	-735.5560913085938	367.1261596679688	-480.4396057128906	-726.5942993164062	266.3336181640625	-474.0847473144531	-1204.343627929688	448.7434387207031	-226.2095794677734	-573.4375610351562	119.2481842041016	-485.7629089355469	-1255.200073242188	511.5295715332031	-238.9193878173828	-742.7808837890625	73.06204223632812	-381.2742309570312	-1280.475219726562	383.0419006347656	-232.3646545410156	-1329.532592773438	445.0426635742188	-256.5041809082031	-727.5588989257812	138.0787658691406	-462.3112487792969	-1403.707885742188	322.0505065917969	-232.9720306396484	-1369.09619140625	125.5937652587891	-296.1041564941406	-1459.753051757812	361.2361755371094	-275.2334594726562	-1482.628662109375	338.7683715820312	-308.5696105957031	-1486.964721679688	345.1870422363281	-252.9840393066406	-745.897216796875	64.52184295654297	-433.5462036132812
